<?xml version="1.0" encoding="UTF-8"?>
<svg version="1.1" xmlns="http://www.w3.org/2000/svg" width="224" height="173">
<path d="M0 0 C1.01320313 0.00451172 2.02640625 0.00902344 3.0703125 0.01367188 C5.54693827 0.02535407 8.02343657 0.04173418 10.5 0.0625 C14.98829184 30.96266304 10.77670922 62.16767848 -7.5625 88.0625 C-8.85692386 89.74324415 -10.16816592 91.4112423 -11.5 93.0625 C-12.05171875 93.76632813 -12.6034375 94.47015625 -13.171875 95.1953125 C-28.42490514 113.7168491 -50.15581436 122.60086967 -73.5 125.0625 C-80.59361815 125.49842067 -87.46662362 125.00028352 -94.5 124.0625 C-91.97831837 120.73251411 -89.52743921 118.12274383 -86.1875 115.625 C-81.50438135 111.97022194 -77.14401494 108.05774215 -72.8125 104 C-71.88667114 103.13387085 -71.88667114 103.13387085 -70.94213867 102.25024414 C-63.68722049 95.41564828 -57.01362973 88.46320094 -50.79052734 80.66503906 C-49.42449719 78.96874282 -48.03624622 77.29246032 -46.64453125 75.6171875 C-37.46059192 64.4760643 -29.57671039 52.64331847 -22.5 40.0625 C-24.00680354 41.89069485 -25.513422 43.71904163 -27.01977539 45.54760742 C-28.30880493 47.1120019 -29.59836431 48.67595994 -30.88842773 50.23950195 C-34.30846473 54.38753479 -37.69941008 58.55558448 -41.0625 62.75 C-45.07886162 67.67473499 -49.36264752 72.3211542 -53.72094727 76.94213867 C-56.42424004 79.80957346 -59.06209123 82.70585967 -61.62109375 85.703125 C-66.25468094 91.02983027 -71.27081454 95.98281901 -76.26977539 100.96264648 C-77.93426277 102.6217732 -79.59333447 104.28618051 -81.25195312 105.95117188 C-94.28664245 118.99705834 -94.28664245 118.99705834 -98.5 122.0625 C-99.16 122.0625 -99.82 122.0625 -100.5 122.0625 C-108.57012278 98.68378553 -112.12166752 76.58872405 -101.15234375 53.1875 C-88.98990837 29.83562406 -67.3695474 14.84347198 -43 6.25 C-28.99031822 1.84695716 -14.65390083 -0.12500047 0 0 Z " fill="#37B048" transform="translate(205.5,25.9375)"/>
<path d="M0 0 C22.80582973 -1.18643045 45.83980289 5.75313497 63 21 C63.63679688 21.55429688 64.27359375 22.10859375 64.9296875 22.6796875 C74.78728189 31.8362974 82.3780133 46.00494769 83.14526367 59.56787109 C83.16990107 62.5036955 83.18565117 65.43906466 83.1875 68.375 C83.19974609 69.39078125 83.21199219 70.4065625 83.22460938 71.453125 C83.23549339 77.04025114 82.87924976 81.72621609 81 87 C80.34 87 79.68 87 79 87 C77.78602206 85.16838416 76.6563865 83.28077316 75.5625 81.375 C67.12779434 67.14771442 55.93757137 54.92686405 44.375 43.1875 C43.8485791 42.64794678 43.3221582 42.10839355 42.77978516 41.55249023 C39.12140926 37.88671333 35.28093887 34.91686137 31 32 C31.6974231 32.68195435 31.6974231 32.68195435 32.40893555 33.37768555 C36.12092354 37.01952228 39.6105647 40.78092457 43 44.72265625 C44.91008381 46.89761496 46.87335404 49.01474902 48.85229492 51.12695312 C57.95695822 60.88524378 65.94550461 71.38962117 73.6875 82.25 C74.48208618 83.35927856 74.48208618 83.35927856 75.29272461 84.4909668 C76.01987671 85.52411011 76.01987671 85.52411011 76.76171875 86.578125 C77.410802 87.49706543 77.410802 87.49706543 78.07299805 88.43457031 C79 90 79 90 79 92 C61.39653349 95.8137253 45.46607414 96.43048381 29.375 86.875 C12.51763965 75.40229288 3.18017969 57.85616143 -0.6640625 38.0546875 C-2.76290273 25.21759496 -2.37889584 12.78656513 0 0 Z " fill="#36AE47" transform="translate(12,58)"/>
</svg>
